<svg xmlns="http://www.w3.org/2000/svg" xmlns:xlink="http://www.w3.org/1999/xlink" id="svg" viewBox="37.16 32.76 352.13 204.85"><g id="svgg"><path id="path0" d="M126.580 35.468 C 123.331 38.717,122.688 42.855,124.857 46.552 C 125.989 48.481,125.263 50.133,86.531 133.744 L 47.050 218.969 43.721 220.040 C 34.169 223.113,35.367 236.539,45.280 237.519 C 50.981 238.083,55.886 233.513,55.417 228.076 L 55.185 225.397 91.703 194.590 L 128.222 163.782 131.865 164.214 C 134.558 164.533,135.992 164.329,137.358 163.434 C 139.991 161.709,138.010 161.036,172.188 175.262 L 203.515 188.301 204.364 191.133 C 207.129 200.362,222.222 199.452,222.222 190.056 C 222.222 188.539,222.083 188.604,256.134 174.434 L 285.971 162.018 288.818 163.301 C 290.610 164.109,292.932 164.491,295.084 164.330 L 298.503 164.074 334.807 194.689 L 371.111 225.305 371.111 228.665 C 371.111 238.427,384.852 241.111,388.623 232.086 C 390.794 226.891,387.429 220.627,381.912 219.592 L 379.437 219.128 340.037 134.070 L 300.636 49.012 301.919 45.401 C 304.369 38.503,300.743 32.963,293.779 32.963 C 287.847 32.963,284.842 35.947,284.755 41.922 L 284.696 46.039 251.156 79.585 L 217.616 113.131 213.223 113.015 L 208.831 112.899 175.124 79.227 C 142.419 46.557,141.429 45.485,141.846 43.187 C 143.405 34.578,132.822 29.226,126.580 35.468 M204.042 120.475 C 202.868 123.815,140.807 149.452,138.135 147.701 L 136.296 146.496 136.296 98.249 L 136.296 50.002 170.524 84.230 C 203.530 117.236,204.727 118.530,204.042 120.475 M290.370 98.433 L 290.370 146.496 288.475 147.738 C 285.617 149.611,222.885 123.610,222.119 120.235 C 221.729 118.516,287.872 50.645,290.185 50.391 C 290.287 50.380,290.370 71.999,290.370 98.433 M127.076 148.627 C 124.612 151.020,123.293 154.553,123.829 157.323 C 124.052 158.476,57.162 215.928,56.439 215.204 C 56.259 215.024,112.685 92.706,127.694 60.741 L 129.259 57.407 129.450 101.771 L 129.641 146.135 127.076 148.627 M332.969 134.444 C 352.414 176.407,368.804 211.861,369.391 213.230 L 370.459 215.719 368.377 214.193 C 367.233 213.353,351.963 200.551,334.444 185.744 L 302.593 158.822 302.194 154.880 C 301.866 151.643,301.369 150.558,299.416 148.813 L 297.037 146.688 297.037 102.109 C 297.037 77.591,297.167 57.670,297.326 57.840 C 297.485 58.009,313.524 92.481,332.969 134.444 M209.630 155.516 L 209.630 180.490 207.945 181.392 C 206.445 182.195,145.422 158.068,142.780 155.627 C 141.401 154.352,206.214 128.341,207.963 129.467 L 209.630 130.541 209.630 155.516 M252.159 141.795 C 281.964 154.228,284.322 155.276,283.642 155.788 C 283.472 155.916,269.115 161.944,251.737 169.184 C 220.496 182.201,220.119 182.334,218.218 181.089 L 216.296 179.830 216.296 155.367 C 216.296 129.143,216.318 128.988,220.056 128.912 C 220.697 128.899,235.144 134.696,252.159 141.795 " stroke="none" fill="#ffffff" fill-rule="evenodd"/></g></svg>