<?xml version="1.0" encoding="UTF-8" standalone="no"?>
<!DOCTYPE svg PUBLIC "-//W3C//DTD SVG 1.1//EN" "http://www.w3.org/Graphics/SVG/1.1/DTD/svg11.dtd">
<svg width="100%" height="100%" viewBox="0 0 1298 438" version="1.1" xmlns="http://www.w3.org/2000/svg" xmlns:xlink="http://www.w3.org/1999/xlink" xml:space="preserve" xmlns:serif="http://www.serif.com/" style="fill-rule:evenodd;clip-rule:evenodd;stroke-miterlimit:10;">
    <path d="M162.313,414.811c0,-53.132 0.082,-105.569 -0.102,-158.005c-0.022,-6.678 0.044,-14.036 -2.646,-19.816c-2.262,-4.863 -8.43,-10.88 -12.953,-10.95c-5.385,-0.083 -13.064,4.393 -15.75,9.149c-3.48,6.166 -4.026,14.552 -4.077,21.996c-0.325,48.251 -0.172,96.505 -0.176,144.759l0,13.091l-110.037,0c0,-46.971 -0.173,-93.437 0.078,-139.902c0.114,-21.134 -1.507,-42.723 2.165,-63.301c7.864,-44.073 33.955,-75.396 76.668,-89.603c43.124,-14.342 81.451,-2.372 114.617,27.723c2.457,2.228 4.812,4.569 7.003,6.657c12.123,-8.652 23.124,-18.019 35.457,-25.053c70.059,-39.953 156.04,3.426 163.34,83.712c3.705,40.745 2.321,81.966 2.895,122.979c0.355,25.328 0.066,50.668 0.066,76.716l-109.95,0c0,-49.339 0.08,-98.322 -0.075,-147.304c-0.028,-8.856 -0.882,-17.722 -1.615,-26.559c-0.754,-9.089 -5.169,-15.18 -14.859,-15.817c-9.705,-0.639 -15.247,5.393 -17.247,13.694c-1.959,8.124 -2.56,16.735 -2.597,25.137c-0.224,49.94 -0.111,99.883 -0.111,150.697l-110.094,0Z" style="fill:#fff;" />
    <path d="M159.779,235.997c-6.333,-11.833 -27.233,-8.8 -30.5,1" style="fill:none;fill-rule:nonzero;stroke:#fff;stroke-width:1px;" />
    <path d="M157.469,220.798c-0.354,-0.2 -0.709,-0.39 -1.066,-0.569c-0.533,-0.427 -1.207,-0.756 -2.045,-0.935c-0.389,-0.083 -0.778,-0.167 -1.167,-0.25c-0.541,-0.116 -1.055,-0.146 -1.539,-0.112c-2.469,-0.543 -4.984,-0.77 -7.56,-0.497c-3.408,0.361 -8.086,-0.336 -11.045,1.78c-2.222,1.589 -3.078,4.554 -1.869,6.772c1.129,2.441 3.933,4.08 6.874,2.238c0.112,-0.07 0.223,-0.139 0.334,-0.209c0.118,-0.074 0.224,-0.159 0.333,-0.241c0.354,-0.039 0.706,-0.088 1.06,-0.118c1.911,-0.185 3.836,-0.172 5.75,-0.375c2.778,-0.294 5.526,0.727 8.087,1.655c5.415,1.962 8.7,-6.399 3.853,-9.139" style="fill:#fff;fill-rule:nonzero;" />
    <path d="M306.113,233.997c-6.333,-11.833 -27.233,-8.8 -30.5,1" style="fill:none;fill-rule:nonzero;stroke:#fff;stroke-width:1px;" />
    <path d="M303.803,218.798c-0.354,-0.2 -0.709,-0.39 -1.066,-0.569c-0.533,-0.427 -1.207,-0.756 -2.045,-0.935c-0.389,-0.083 -0.778,-0.167 -1.167,-0.25c-0.541,-0.116 -1.055,-0.146 -1.539,-0.112c-2.469,-0.543 -4.984,-0.77 -7.56,-0.497c-3.408,0.361 -8.086,-0.336 -11.045,1.78c-2.222,1.589 -3.078,4.554 -1.869,6.772c1.129,2.441 3.933,4.08 6.874,2.238c0.112,-0.07 0.223,-0.139 0.334,-0.209c0.118,-0.074 0.224,-0.159 0.333,-0.241c0.354,-0.039 0.706,-0.088 1.06,-0.118c1.911,-0.185 3.836,-0.172 5.75,-0.375c2.778,-0.294 5.526,0.727 8.087,1.655c5.415,1.962 8.7,-6.399 3.853,-9.139" style="fill:#fff;fill-rule:nonzero;" />
    <path d="M1133.24,116.311c71.135,1.555 136.91,57.2 144.381,123.163c-26.023,1.098 -51.988,2.227 -77.957,3.266c-6.343,0.254 -12.721,-0.105 -19.038,0.383c-8.269,0.638 -14.66,-0.871 -21.372,-7.232c-15.313,-14.512 -39.843,-14.445 -55.831,-1.662c-15.666,12.526 -20.254,36.542 -10.564,55.3c9.505,18.4 31.101,29.17 50.114,21.472c9.941,-4.024 17.173,-14.714 25.673,-22.344c3.036,-2.726 6.079,-7.439 9.328,-7.625c33.718,-1.932 67.478,-3.124 102.645,-4.581c-1.192,32.326 -10.978,60.931 -30.201,85.759c-40.874,52.789 -95.832,70.142 -158.994,54.603c-62.716,-15.431 -100.639,-58.497 -112.728,-121.749c-12.104,-63.333 15.315,-121.723 70.174,-156.503c3.027,-1.918 5.411,-4.854 8.094,-7.316c5.939,-1.721 11.783,-3.968 17.836,-5.064c19.438,-3.519 38.954,-6.612 58.44,-9.87" style="fill:#fff;" />
    <path d="M1133.24,116.311c-19.486,3.258 -39.002,6.351 -58.44,9.87c-6.053,1.096 -11.897,3.343 -17.836,5.064c-29.287,4.863 -55.941,16.096 -79.19,34.492c-23.165,18.328 -30.599,42.652 -23.475,72.859c-7.523,1.417 -14.967,1.42 -21.001,4.341c-6.18,2.991 -13.256,7.831 -15.843,13.674c-3.807,8.601 -4.476,18.753 -5.618,28.348c-5.753,48.252 -21.605,91.442 -67.118,115.454c-16.561,8.737 -36.975,13.517 -55.793,14.019c-63.422,1.689 -126.917,0.643 -193.292,0.643c12.674,-2.699 22.585,-4.809 32.493,-6.919c18.912,-5.472 38.454,-9.41 56.556,-16.85c17.475,-7.182 33.985,-17.377 42.375,-36.111c12.401,-15.256 12.305,-33.448 11.738,-53.338c5.676,0 10.988,0.118 16.293,-0.02c26.354,-0.682 39.721,-12.582 42.757,-38.687c1.854,-15.934 3.665,-31.922 4.312,-47.934c1.997,-49.53 46.047,-87.457 91.78,-91.155c46.686,-3.775 93.673,-3.904 140.538,-5.363c32.913,-1.026 65.841,-1.608 98.764,-2.387" style="fill:#71a531;" />
    <rect x="449.327" y="14.722" width="108.738" height="400.446" style="fill:#fff;" />
    <path d="M727.053,355.195c-8.391,18.734 -24.9,28.93 -42.375,36.111c-18.103,7.44 -37.645,11.378 -56.556,16.85c-20.278,-56.683 -40.346,-113.444 -61.031,-169.979c-3.63,-9.92 -3.278,-17.951 1.64,-27.394c13.43,-25.783 26.03,-52.012 38.384,-78.334c3.566,-7.595 7.994,-10.135 16.432,-9.998c33.843,0.552 67.699,0.229 103.316,0.229c-15.55,30.798 -29.928,60.658 -45.672,89.78c-6.365,11.77 -6.873,21.247 -1.131,33.694c16.578,35.925 31.451,72.639 46.993,109.041" style="fill:#fff;" />
</svg>