<svg xmlns="http://www.w3.org/2000/svg" viewBox="0 0 226.77 49.91"><defs><style>.cls-1{fill:#fff;}.cls-2{fill:#00a0e9;}.cls-3{fill:#0068b7;}</style></defs><title>アセット 1</title><g id="レイヤー_2" data-name="レイヤー 2"><g id="レイヤー_1-2" data-name="レイヤー 1"><path class="cls-1" d="M198.58,18.63a.21.21,0,0,1,.22-.22h16.12v-4H192V35.53h22.88v-4H198.81a.23.23,0,0,1-.23-.23h0V27.18a.21.21,0,0,1,.21-.21H214.3V23H198.81a.23.23,0,0,1-.23-.23V18.63Z"/><rect class="cls-1" x="114.12" y="14.39" width="6.53" height="21.14"/><rect class="cls-1" x="220.24" y="14.39" width="6.53" height="21.14"/><path class="cls-1" d="M100.52,14.39v8.34a.23.23,0,0,1-.22.22H89.73a.23.23,0,0,1-.23-.23h0V14.39H83V35.53H89.5V27.19a.21.21,0,0,1,.22-.22h10.56a.23.23,0,0,1,.23.22h0v8.34h6.53V14.39Z"/><path class="cls-1" d="M145.29,14.39V28.28a.22.22,0,0,1-.22.22.23.23,0,0,1-.2-.1l0,0-10.62-14h-6.54V35.53h6.54V21.63a.23.23,0,0,1,.22-.23.26.26,0,0,1,.18.09l10.62,14h6.53V14.39Z"/><path class="cls-1" d="M68,23H66.45c-2.42,0-4.15-.31-4.09-2.31s2.78-2.31,5.06-2.31h8.8V14.39H65.07c-5.35,0-11,1.14-11,6.25S59.12,27,64.32,27h1.57c2.43,0,4.15.31,4.1,2.31s-2.78,2.19-5.06,2.19H53.43v4.06H67.27c5.35,0,11-1.14,11-6.25S73.23,23,68,23Z"/><path class="cls-1" d="M179.27,14.39l-7.78,9.86h0a.3.3,0,0,1-.24.11.33.33,0,0,1-.26-.14l-6.35-9.83h-6.53V35.53h6.53V22.46h0a.22.22,0,0,1,.22-.22.23.23,0,0,1,.2.11v0l6.2,9.6,7.62-9.66h0a.21.21,0,0,1,.17-.08.22.22,0,0,1,.23.22h0v13.1h6.54V14.39Z"/><polygon class="cls-2" points="34.82 28.26 21.81 34.2 7.26 27.55 7.26 13.55 21.81 6.91 43.62 16.87 43.62 9.96 21.81 0 0 9.96 0 31.14 21.81 41.1 34.82 35.16 34.82 28.26"/><polygon class="cls-3" points="8.8 21.66 21.81 15.71 36.35 22.36 36.35 36.36 21.81 43.01 0 33.04 0 39.95 21.81 49.91 43.62 39.95 43.62 18.77 21.81 8.81 8.8 14.75 8.8 21.66"/></g></g></svg>