<?xml version="1.0" encoding="UTF-8"?>
<svg viewBox="0 0 400 200" xmlns="http://www.w3.org/2000/svg">
<line x1="11" x2="119" y1="189" y2="11" stroke="#fff" stroke-width="7"/>
<line x1="11" x2="119" y1="189" y2="123" stroke="#fff" stroke-width="7"/>
<line x1="119" x2="119" y1="11" y2="123" stroke="#fff" stroke-width="7"/>
<line x1="119" x2="200" y1="11" y2="66" stroke="#fff" stroke-width="7"/>
<line x1="119" x2="200" y1="123" y2="66" stroke="#fff" stroke-width="7"/>
<line x1="119" x2="200" y1="123" y2="160" stroke="#fff" stroke-width="7"/>
<line x1="200" x2="200" y1="66" y2="160" stroke="#fff" stroke-width="7"/>
<line x1="200" x2="281" y1="66" y2="11" stroke="#fff" stroke-width="7"/>
<line x1="200" x2="281" y1="66" y2="123" stroke="#fff" stroke-width="7"/>
<line x1="200" x2="281" y1="160" y2="123" stroke="#fff" stroke-width="7"/>
<line x1="281" x2="281" y1="11" y2="123" stroke="#fff" stroke-width="7"/>
<line x1="281" x2="389" y1="11" y2="189" stroke="#fff" stroke-width="7"/>
<line x1="281" x2="389" y1="123" y2="189" stroke="#fff" stroke-width="7"/>
<circle cx="11" cy="189" r="11" fill="#fff" stroke-width="0"/>
<circle cx="119" cy="11" r="11" fill="#fff" stroke-width="0"/>
<circle cx="119" cy="123" r="11" fill="#fff" stroke-width="0"/>
<circle cx="200" cy="66" r="11" fill="#fff" stroke-width="0"/>
<circle cx="200" cy="160" r="11" fill="#fff" stroke-width="0"/>
<circle cx="281" cy="11" r="11" fill="#fff" stroke-width="0"/>
<circle cx="281" cy="123" r="11" fill="#fff" stroke-width="0"/>
<circle cx="389" cy="189" r="11" fill="#fff" stroke-width="0"/>
</svg>
