<?xml version="1.0" standalone="no"?>
<!DOCTYPE svg PUBLIC "-//W3C//DTD SVG 20010904//EN"
 "http://www.w3.org/TR/2001/REC-SVG-20010904/DTD/svg10.dtd">
<svg version="1.0" xmlns="http://www.w3.org/2000/svg"
 width="983.000000pt" height="983.000000pt" viewBox="0 0 983.000000 983.000000"
 preserveAspectRatio="xMidYMid meet">
<metadata>
Created by potrace 1.14, written by Peter Selinger 2001-2017
</metadata>
<g transform="translate(0.000000,983.000000) scale(0.100000,-0.100000)"
fill="#000000" stroke="none">
<path d="M0 4920 l0 -4290 4915 0 4915 0 0 4290 0 4290 -4915 0 -4915 0 0
-4290z m5270 3751 c306 -41 762 -154 915 -226 17 -8 78 -35 138 -60 450 -191
869 -487 1247 -880 74 -77 146 -164 244 -293 87 -115 246 -349 246 -363 0 -5
18 -38 40 -74 43 -71 131 -244 173 -340 100 -231 208 -577 232 -745 4 -25 13
-79 20 -120 43 -238 50 -322 50 -630 -1 -341 -7 -408 -76 -757 -29 -146 -55
-247 -95 -360 -31 -87 -64 -183 -74 -213 -64 -194 -266 -574 -424 -799 -273
-387 -561 -677 -931 -935 -225 -157 -581 -337 -845 -428 -149 -51 -438 -128
-481 -128 -11 0 -30 -11 -42 -25 -12 -14 -39 -36 -60 -48 -101 -60 -430 -270
-729 -467 l-117 -77 -118 57 c-229 112 -433 210 -438 210 -3 0 -61 26 -128 59
-149 71 -302 141 -310 141 -4 0 -79 36 -168 80 -90 43 -165 78 -168 76 -27
-13 -245 -146 -278 -168 l-43 -29 -87 16 c-49 9 -135 25 -193 36 -58 10 -184
34 -280 53 -96 19 -240 46 -320 61 -80 15 -201 38 -270 52 -69 14 -156 32
-195 39 -38 7 -71 13 -72 14 -4 0 -13 93 -33 325 -12 132 -28 303 -36 380 -8
77 -21 214 -29 305 -8 91 -20 221 -26 290 -6 69 -11 132 -11 140 0 8 -4 42 -9
75 -5 33 -13 108 -18 166 -8 101 -12 113 -63 215 -132 268 -227 531 -298 824
-80 329 -119 800 -90 1075 5 50 14 132 19 184 16 160 62 391 113 576 29 105
105 326 134 390 7 17 23 55 34 85 52 135 230 457 323 587 29 40 67 94 86 120
204 285 480 570 754 778 121 92 342 245 353 245 3 0 24 13 47 28 102 70 586
290 706 322 20 5 104 28 186 50 209 56 414 96 585 114 80 9 161 18 180 20 19
2 157 3 305 1 204 -2 308 -8 425 -24z"/>
<path d="M4635 8299 c-424 -19 -818 -108 -1191 -268 -175 -75 -541 -280 -621
-347 -28 -24 -55 -44 -60 -44 -5 0 -49 -34 -98 -75 -50 -41 -112 -92 -140
-113 -97 -75 -377 -382 -495 -542 -60 -80 -170 -254 -214 -335 -15 -28 -33
-61 -41 -75 -62 -109 -164 -343 -205 -470 -102 -317 -160 -648 -174 -995 -8
-179 20 -508 58 -690 8 -38 20 -97 26 -130 23 -116 120 -433 155 -510 89 -192
126 -269 158 -333 35 -68 39 -72 65 -66 15 3 117 32 227 64 260 76 566 159
633 173 l52 10 0 71 c0 109 18 868 26 1076 3 102 11 190 16 197 15 19 45 22
458 43 217 12 474 25 570 30 96 5 225 10 286 10 93 0 113 3 118 16 14 36 7 41
-71 48 -300 25 -429 72 -468 168 -8 21 -20 38 -27 38 -9 0 -8 3 2 10 27 17 3
21 -56 11 -32 -6 -73 -11 -91 -11 -75 0 -221 102 -330 229 -160 187 -200 394
-96 493 52 50 127 62 199 32 43 -18 147 -115 201 -187 22 -30 39 -45 45 -39 6
6 6 86 -1 213 -10 184 -17 1147 -8 1155 2 2 23 6 48 9 25 3 85 17 135 31 158
46 366 102 479 130 61 15 112 29 114 30 6 6 -30 178 -41 191 -5 6 -26 14 -48
18 -88 15 -153 113 -130 197 33 117 138 178 246 143 88 -30 124 -80 124 -173
0 -60 -1 -61 -64 -147 -14 -18 -13 -28 9 -98 14 -43 25 -84 25 -93 0 -17 47
-14 185 13 54 10 104 13 155 9 131 -11 803 -112 1008 -151 120 -23 113 -26
196 83 42 53 94 118 116 143 37 43 39 49 29 75 -16 42 -13 107 6 148 57 119
251 93 298 -39 31 -89 2 -188 -63 -215 -18 -7 -52 -10 -81 -8 -47 5 -53 3 -78
-25 -14 -17 -55 -62 -90 -101 -66 -74 -96 -114 -90 -120 2 -1 63 -18 134 -36
134 -33 351 -96 366 -106 20 -12 7 -30 -45 -68 -22 -16 -24 -20 -11 -30 8 -6
15 -27 17 -46 2 -44 17 -67 30 -48 6 8 8 -98 5 -272 -2 -157 -2 -293 0 -303 3
-9 22 -26 43 -37 54 -28 117 -104 135 -163 40 -135 10 -238 -151 -521 -100
-176 -177 -216 -360 -186 l-60 10 -110 -107 c-112 -109 -209 -180 -279 -203
-31 -10 -97 -12 -290 -7 -233 6 -323 14 -610 52 -60 8 -132 17 -160 20 -45 6
-267 55 -321 70 -18 6 -23 -1 -39 -52 -10 -32 -28 -91 -41 -131 -13 -40 -35
-132 -50 -204 l-27 -131 29 -24 c41 -34 144 -86 144 -72 0 14 26 39 34 32 3
-4 6 -1 6 6 0 8 7 11 15 7 8 -3 14 0 12 7 -1 7 6 11 16 9 10 -2 32 7 49 19 17
13 28 17 24 10 -6 -9 2 -8 23 3 17 9 31 13 31 9 0 -5 5 0 11 10 9 15 13 16 27
5 13 -11 15 -11 9 5 -5 13 -1 17 16 17 18 0 19 -2 7 -10 -10 -7 -11 -10 -2
-10 7 0 15 7 19 16 3 8 11 13 19 10 7 -3 14 -1 16 4 2 5 12 11 23 13 11 2 29
8 41 15 16 8 24 8 34 -1 10 -10 12 -8 8 9 -4 17 -2 20 13 17 11 -3 27 1 36 8
14 12 15 12 9 1 -7 -11 -4 -12 10 -4 22 12 75 23 122 25 17 1 32 4 32 7 0 4
16 6 100 11 47 3 142 -23 160 -43 10 -11 23 -25 30 -32 12 -12 29 -30 80 -89
19 -22 57 -62 84 -89 27 -26 43 -48 36 -48 -10 0 -11 -3 -3 -11 10 -10 55 5
201 68 8 3 12 -6 12 -29 0 -19 3 -62 6 -94 l6 -59 -53 -28 c-30 -15 -44 -26
-32 -23 17 3 21 0 18 -15 -2 -11 1 -19 7 -19 6 0 8 -13 6 -30 -4 -27 -2 -30
16 -25 12 3 16 2 10 -1 -9 -3 -8 -16 1 -46 14 -48 32 -60 37 -26 5 29 26 -84
34 -183 l7 -75 51 -2 c60 -2 105 -7 286 -32 74 -11 239 -31 365 -45 220 -25
584 -81 594 -91 3 -3 -9 -18 -27 -35 -29 -27 -41 -49 -27 -49 3 0 23 11 45 25
21 13 41 21 44 17 8 -13 -15 -586 -25 -598 -4 -6 -9 -142 -9 -302 -1 -160 -5
-314 -9 -342 -5 -28 -5 -49 0 -48 14 5 193 184 260 259 124 141 270 341 392
539 52 84 213 415 223 457 4 16 11 33 15 39 5 6 27 69 48 140 185 601 217
1156 100 1743 -44 218 -123 470 -199 636 -167 362 -293 564 -510 819 -199 235
-358 383 -605 563 -203 149 -591 360 -770 418 -22 7 -74 26 -115 40 -89 32
-282 88 -360 104 -202 40 -270 52 -390 65 -169 19 -352 24 -545 15z m1328
-3122 c3 -8 37 -24 75 -36 124 -39 263 -155 360 -301 34 -51 42 -71 42 -109
-1 -85 -56 -163 -146 -206 -38 -18 -127 -20 -175 -3 -128 44 -341 255 -416
413 -18 38 -40 79 -48 91 -15 21 -14 21 38 27 64 6 133 40 201 96 52 44 61 48
69 28z m-2237 -29 c21 -22 24 -29 11 -25 -11 4 -31 10 -45 13 -54 13 -71 44
-24 44 19 0 38 -11 58 -32z"/>
<path d="M3919 6514 c-82 -26 -133 -132 -151 -313 -23 -231 36 -446 139 -511
56 -36 90 -44 153 -35 150 21 220 247 174 556 -8 57 -25 127 -38 154 -27 59
-77 120 -115 140 -42 21 -111 25 -162 9z"/>
<path d="M5057 6325 c-115 -42 -191 -166 -218 -353 -24 -170 15 -334 101 -419
73 -73 110 -88 215 -88 105 0 122 8 206 87 83 78 101 133 107 318 4 129 2 152
-18 210 -46 137 -109 214 -199 245 -55 18 -143 18 -194 0z"/>
<path d="M3550 5764 c0 -6 7 -19 15 -30 8 -10 14 -14 14 -9 0 6 -6 19 -14 29
-8 11 -15 15 -15 10z"/>
<path d="M4144 4291 c-58 -49 -93 -95 -82 -106 3 -3 38 25 78 63 89 83 92 118
4 43z"/>
<path d="M3568 4180 c-107 -18 -225 -118 -263 -221 -14 -40 -20 -88 -23 -185
-4 -118 -2 -137 20 -200 60 -173 239 -370 411 -455 60 -30 68 -32 84 -17 12
10 26 12 43 7 74 -22 160 2 243 67 31 24 68 61 81 82 27 40 48 140 40 194 -2
18 -5 45 -6 61 0 15 -5 27 -11 27 -5 0 -7 7 -3 15 3 8 1 15 -4 15 -6 0 -10 -9
-10 -20 0 -11 4 -20 10 -20 5 0 7 -7 4 -15 -7 -18 -26 -20 -23 -2 3 24 -1 37
-12 37 -5 0 -7 -5 -3 -11 3 -6 2 -14 -5 -18 -6 -4 -12 -19 -13 -34 -2 -26 -3
-26 -20 -7 -16 16 -48 18 -48 3 0 -3 7 -3 15 1 8 3 15 1 15 -4 0 -6 -9 -10
-21 -10 -13 0 -18 -4 -13 -12 6 -10 5 -10 -7 -1 -8 7 -31 10 -51 8 -21 -1 -45
3 -55 10 -14 11 -19 10 -29 -3 -9 -12 -13 -12 -19 -2 -5 9 -4 11 3 6 7 -4 12
-2 12 3 0 6 -5 11 -11 11 -5 0 -7 5 -3 12 5 7 3 8 -5 4 -7 -5 -21 0 -33 11
-12 10 -18 12 -14 6 5 -9 2 -11 -8 -7 -17 7 -22 24 -7 24 6 0 9 9 8 19 0 11
-4 18 -8 16 -3 -3 -12 8 -20 23 -8 15 -25 37 -39 50 l-25 23 25 21 c14 11 19
16 11 12 -10 -5 -13 -3 -8 9 4 10 -3 21 -19 31 -13 9 -24 21 -24 27 0 8 5 7
15 -1 9 -7 19 -10 23 -6 4 4 -1 12 -10 17 -11 6 -15 16 -11 26 5 12 3 14 -7 8
-8 -5 -11 -4 -6 3 3 6 16 9 29 7 l22 -4 -21 17 c-19 16 -22 48 -3 37 5 -4 6 1
3 9 -3 9 -10 13 -15 10 -5 -3 -9 -1 -9 4 0 14 26 22 37 11 6 -6 10 2 10 21 0
17 6 36 13 43 8 8 11 8 7 1 -5 -8 2 -11 17 -10 18 1 22 4 14 14 -13 15 4 16
20 0 9 -9 12 -9 12 0 0 19 20 14 20 -5 1 -16 2 -16 17 2 12 15 14 16 10 3 -3
-9 -2 -18 2 -20 11 -4 105 -83 147 -125 19 -18 35 -46 39 -67 4 -19 12 -34 17
-33 6 1 12 -7 13 -18 7 -46 33 -110 39 -95 9 21 -56 200 -95 265 -80 132 -217
248 -340 286 -64 20 -95 22 -171 9z m432 -730 c0 -5 -4 -10 -10 -10 -5 0 -10
5 -10 10 0 6 5 10 10 10 6 0 10 -4 10 -10z"/>
<path d="M5740 4169 c0 -24 23 -21 28 4 2 10 -3 17 -12 17 -10 0 -16 -9 -16
-21z"/>
<path d="M5070 4113 c-48 -9 -165 -71 -206 -109 -149 -143 -246 -367 -265
-618 -14 -188 4 -255 89 -318 62 -46 87 -54 238 -74 97 -13 263 38 334 103 14
13 27 23 31 23 3 0 28 28 57 63 64 79 121 187 158 297 26 77 29 98 29 220 0
134 0 136 -34 200 -39 76 -77 119 -143 161 -77 50 -190 70 -288 52z"/>
<path d="M5790 3937 c0 -8 -9 -22 -20 -32 -11 -10 -17 -22 -14 -26 3 -5 -2 -6
-10 -3 -10 4 -16 1 -16 -9 0 -8 -7 -18 -16 -21 -22 -8 -26 -8 -19 4 3 6 -1 7
-9 4 -13 -5 -14 -10 -3 -27 8 -14 12 -61 11 -129 0 -60 0 -108 2 -108 11 0 57
101 73 161 22 77 38 199 27 199 -3 0 -6 -6 -6 -13z"/>
<path d="M5754 3916 c-10 -8 -17 -16 -14 -19 3 -2 14 4 24 14 23 22 18 25 -10
5z"/>
<path d="M3760 3676 c0 -2 7 -9 15 -16 13 -11 14 -10 9 4 -5 14 -24 23 -24 12z"/>
<path d="M4025 3499 c-4 -6 -5 -12 -2 -15 2 -3 7 2 10 11 7 17 1 20 -8 4z"/>
</g>
</svg>
